M48
; DRILL file {KiCad (5.1.5)-3} date 1/24/2020 2:25:55 PM
; FORMAT={-:-/ absolute / inch / decimal}
; #@! TF.CreationDate,2020-01-24T14:25:55-05:00
; #@! TF.GenerationSoftware,Kicad,Pcbnew,(5.1.5)-3
; #@! TF.FileFunction,Plated,1,2,PTH
FMAT,2
INCH
T1C0.0157
T2C0.0315
T3C0.0354
T4C0.0394
T5C0.0400
T6C0.0433
T7C0.0472
T8C0.0512
%
G90
G05
T1
X2.56Y0.56
X2.6803Y1.24
X2.82Y1.5646
X3.0443Y1.0243
X3.6Y1.64
X3.6Y0.76
T2
X1.24Y0.7584
X1.24Y0.66
X1.06Y3.24
X1.06Y2.94
X2.4Y1.46
X2.4Y1.16
X2.5Y1.46
X2.5Y1.16
X2.6Y1.46
X2.6Y1.16
X2.7Y1.46
X2.7Y1.16
X2.8Y1.46
X2.8Y1.16
X2.9Y1.46
X2.9Y1.16
X3.0Y1.46
X3.0Y1.16
X3.1Y1.46
X3.1Y1.16
X1.24Y1.26
X1.24Y0.96
X0.82Y2.74
X0.82Y2.44
X1.6Y0.86
X1.6Y0.56
X1.7Y0.86
X1.7Y0.56
X1.8Y0.86
X1.8Y0.56
X1.9Y0.86
X1.9Y0.56
X2.0Y0.86
X2.0Y0.56
X2.1Y0.86
X2.1Y0.56
X2.2Y0.86
X2.2Y0.56
X0.96Y0.7584
X0.96Y0.66
X0.26Y0.7584
X0.26Y0.66
X0.96Y2.3
X1.26Y2.3
X0.54Y0.7584
X0.54Y0.66
X1.1Y1.68
X1.1Y1.38
X3.22Y3.42
X3.32Y3.42
X3.42Y3.42
X1.84Y2.62
X1.84Y2.22
X0.82Y1.68
X0.82Y1.38
X1.1Y0.7584
X1.1Y0.66
X1.1Y1.26
X1.1Y0.96
X0.56Y2.74
X0.56Y2.44
X0.66Y2.74
X0.66Y2.44
X0.98Y2.74
X0.98Y2.44
X1.08Y2.74
X1.08Y2.44
X3.18Y3.22
X3.18Y3.12
X3.18Y3.02
X3.18Y2.92
X3.48Y3.22
X3.48Y3.12
X3.48Y3.02
X3.48Y2.92
X0.96Y1.26
X0.96Y0.96
X0.4Y1.68
X0.4Y1.38
X1.38Y0.7584
X1.38Y0.66
X1.38Y1.26
X1.38Y0.96
X0.4Y2.74
X0.4Y2.44
X0.14Y2.74
X0.14Y2.44
X0.24Y2.74
X0.24Y2.44
X2.04Y2.28
X2.14Y2.38
X2.14Y2.18
X1.3Y2.92
X1.4Y3.02
X1.4Y2.82
X0.54Y1.68
X0.54Y1.38
X0.96Y1.68
X0.96Y1.38
X0.82Y0.7584
X0.82Y0.66
X2.8Y0.86
X2.8Y0.56
X2.9Y0.86
X2.9Y0.56
X3.0Y0.86
X3.0Y0.56
X3.1Y0.86
X3.1Y0.56
X3.2Y0.86
X3.2Y0.56
X3.3Y0.86
X3.3Y0.56
X3.4Y0.86
X3.4Y0.56
X3.5Y0.86
X3.5Y0.56
X0.12Y2.3
X0.42Y2.3
X1.54Y2.56
X1.54Y2.4222
X0.82Y1.26
X0.82Y0.96
X0.54Y1.26
X0.54Y0.96
X0.68Y1.68
X0.68Y1.38
X0.68Y0.7584
X0.68Y0.66
X1.84Y3.28
X1.84Y2.78
X1.24Y1.68
X1.24Y1.38
X2.04Y3.0
X2.14Y3.1
X2.14Y2.9
X0.4Y1.26
X0.4Y0.96
X0.26Y1.68
X0.26Y1.38
X0.68Y1.26
X0.68Y0.96
X1.6Y1.68
X1.6Y1.38
X1.7Y1.68
X1.7Y1.38
X1.8Y1.68
X1.8Y1.38
X1.9Y1.68
X1.9Y1.38
X2.0Y1.68
X2.0Y1.38
X2.1Y1.68
X2.1Y1.38
X2.2Y1.68
X2.2Y1.38
X0.4Y0.7584
X0.4Y0.66
X0.54Y2.3
X0.84Y2.3
X1.38Y1.68
X1.38Y1.38
X1.3Y3.32
X1.4Y3.42
X1.4Y3.22
X0.26Y1.26
X0.26Y0.96
T3
X3.48Y2.54
X3.48Y2.24
X1.9Y3.44
X2.2Y3.44
X2.06Y2.78
X2.06Y2.48
X0.28Y3.48
X0.28Y3.38
T4
X3.38Y2.7
X3.48Y2.7
X2.3968Y2.7343
X2.3968Y2.2618
X1.6909Y-0.1474
X1.6909Y-0.2474
X2.3968Y3.4343
X2.3968Y2.9618
X3.18Y2.36
X3.18Y2.26
X1.62Y2.92
X1.62Y2.82
X1.5027Y-0.1474
X1.5027Y-0.2474
X3.18Y2.7
X3.18Y2.6
T5
X1.81Y2.01
X1.91Y2.01
X2.01Y2.01
X2.11Y2.01
X2.21Y2.01
X2.31Y2.01
X2.41Y2.01
X2.51Y2.01
X2.71Y2.01
X2.81Y2.01
X2.91Y2.01
X3.01Y2.01
X3.11Y2.01
X3.21Y2.01
X3.31Y2.01
X3.41Y2.01
X2.01Y0.11
X2.11Y0.11
X2.21Y0.11
X2.31Y0.11
X2.41Y0.11
X2.51Y0.11
X2.61Y0.11
X2.71Y0.11
X2.91Y0.11
X3.01Y0.11
X3.11Y0.11
X3.21Y0.11
X3.31Y0.11
X3.41Y0.11
X3.51Y0.11
X3.61Y0.11
X0.75Y2.01
X0.85Y2.01
X0.95Y2.01
X1.05Y2.01
X1.15Y2.01
X1.25Y2.01
X1.35Y2.01
X1.45Y2.01
X1.55Y2.01
X1.65Y2.01
X1.11Y0.11
X1.21Y0.11
X1.31Y0.11
X1.41Y0.11
X1.51Y0.11
X1.61Y0.11
X1.71Y0.11
X1.81Y0.11
X3.71Y2.01
X3.71Y1.91
X3.71Y1.81
X3.71Y1.71
X3.71Y1.61
X3.71Y1.51
X3.71Y1.41
X3.71Y1.31
X3.71Y1.21
X3.71Y1.11
X3.71Y1.01
X3.71Y0.91
X3.71Y0.81
X3.71Y0.71
X3.71Y0.61
X3.71Y0.51
X3.71Y0.41
X3.71Y0.31
X3.81Y2.01
X3.81Y1.91
X3.81Y1.81
X3.81Y1.71
X3.81Y1.61
X3.81Y1.51
X3.81Y1.41
X3.81Y1.31
X3.81Y1.21
X3.81Y1.11
X3.81Y1.01
X3.81Y0.91
X3.81Y0.81
X3.81Y0.71
X3.81Y0.61
X3.81Y0.51
X3.81Y0.41
X3.81Y0.31
T6
X0.6441Y0.2772
X0.6441Y0.1
X0.9Y0.2772
X0.9Y0.1
T7
X3.8435Y3.1
X3.8435Y2.9623
X1.8229Y-0.7087
X1.9606Y-0.7087
X3.5406Y-0.7035
X3.6784Y-0.7035
X3.8161Y-0.7035
X1.4962Y-0.7008
X1.6339Y-0.7008
X3.8358Y2.4263
X3.8358Y2.2886
X2.1851Y-0.7059
X2.3229Y-0.7059
X2.4606Y-0.7059
X0.3072Y-0.7047
X0.445Y-0.7047
X0.5828Y-0.7047
X0.7205Y-0.7047
X0.8977Y-0.7087
X1.0355Y-0.7087
X1.1733Y-0.7087
X1.311Y-0.7087
X3.091Y-0.7059
X3.2288Y-0.7059
X3.3665Y-0.7059
X3.8396Y2.7628
X3.8396Y2.6251
X2.6379Y-0.7047
X2.7757Y-0.7047
X2.9134Y-0.7047
X3.8415Y3.4331
X3.8415Y3.2954
X0.1457Y-0.1694
X0.1457Y-0.3071
T8
X2.32Y2.5
X2.8771Y2.2618
X2.8791Y2.7362
X2.32Y3.2
X2.8771Y2.9618
X2.8791Y3.4362
T0
M30
