G04 #@! TF.GenerationSoftware,KiCad,Pcbnew,(5.1.5)-3*
G04 #@! TF.CreationDate,2020-01-24T14:25:46-05:00*
G04 #@! TF.ProjectId,arduino_duo_shield,61726475-696e-46f5-9f64-756f5f736869,rev?*
G04 #@! TF.SameCoordinates,PX6258c20PY7445a00*
G04 #@! TF.FileFunction,OtherDrawing,Comment*
%FSLAX46Y46*%
G04 Gerber Fmt 4.6, Leading zero omitted, Abs format (unit mm)*
G04 Created by KiCad (PCBNEW (5.1.5)-3) date 2020-01-24 14:25:46*
%MOMM*%
%LPD*%
G04 APERTURE LIST*
%ADD10C,0.150000*%
%ADD11C,0.203200*%
%ADD12C,0.127000*%
%ADD13C,0.100000*%
G04 APERTURE END LIST*
D10*
X-1651000Y3429000D02*
X-1651000Y12319000D01*
X12700000Y3429000D02*
X-1651000Y3429000D01*
X12700000Y12319000D02*
X12700000Y3429000D01*
X-1651000Y12319000D02*
X12700000Y12319000D01*
D11*
X87681860Y-20018840D02*
X88182240Y-20018840D01*
X87681860Y-21019600D02*
X87681860Y-20018840D01*
X88182240Y-21019600D02*
X87681860Y-21019600D01*
X99177900Y-15520500D02*
X98677520Y-15520500D01*
X99177900Y-16521260D02*
X99177900Y-15520500D01*
X98677520Y-16521260D02*
X99177900Y-16521260D01*
X76261860Y-20078840D02*
X76762240Y-20078840D01*
X76261860Y-21079600D02*
X76261860Y-20078840D01*
X76762240Y-21079600D02*
X76261860Y-21079600D01*
X87757900Y-15580500D02*
X87257520Y-15580500D01*
X87757900Y-16581260D02*
X87757900Y-15580500D01*
X87257520Y-16581260D02*
X87757900Y-16581260D01*
X64751860Y-20048840D02*
X65252240Y-20048840D01*
X64751860Y-21049600D02*
X64751860Y-20048840D01*
X65252240Y-21049600D02*
X64751860Y-21049600D01*
X76247900Y-15550500D02*
X75747520Y-15550500D01*
X76247900Y-16551260D02*
X76247900Y-15550500D01*
X75747520Y-16551260D02*
X76247900Y-16551260D01*
X53251860Y-20078840D02*
X53752240Y-20078840D01*
X53251860Y-21079600D02*
X53251860Y-20078840D01*
X53752240Y-21079600D02*
X53251860Y-21079600D01*
X64747900Y-15580500D02*
X64247520Y-15580500D01*
X64747900Y-16581260D02*
X64747900Y-15580500D01*
X64247520Y-16581260D02*
X64747900Y-16581260D01*
D12*
X39782960Y-20799740D02*
G75*
G03X39782960Y-20799740I-281940J0D01*
G01*
D11*
X35751980Y-19948840D02*
X36252360Y-19948840D01*
X35751980Y-20949600D02*
X35751980Y-19948840D01*
X36252360Y-20949600D02*
X35751980Y-20949600D01*
X43747900Y-15450500D02*
X43247520Y-15450500D01*
X43747900Y-16451260D02*
X43747900Y-15450500D01*
X43247520Y-16451260D02*
X43747900Y-16451260D01*
D12*
X94712200Y60128980D02*
G75*
G03X94712200Y60128980I-281940J0D01*
G01*
D11*
X95281160Y63878020D02*
X95281160Y63377640D01*
X94280400Y63878020D02*
X95281160Y63878020D01*
X94280400Y63377640D02*
X94280400Y63878020D01*
X99779500Y55882100D02*
X99779500Y56382480D01*
X98778740Y55882100D02*
X99779500Y55882100D01*
X98778740Y56382480D02*
X98778740Y55882100D01*
D12*
X982200Y-5801020D02*
G75*
G03X982200Y-5801020I-281940J0D01*
G01*
D11*
X1551160Y-2051980D02*
X1551160Y-2552360D01*
X550400Y-2051980D02*
X1551160Y-2051980D01*
X550400Y-2552360D02*
X550400Y-2051980D01*
X6049500Y-10047900D02*
X6049500Y-9547520D01*
X5048740Y-10047900D02*
X6049500Y-10047900D01*
X5048740Y-9547520D02*
X5048740Y-10047900D01*
D12*
X100906680Y76741020D02*
G75*
G03X100906680Y76741020I-281940J0D01*
G01*
D11*
X99773840Y72991980D02*
X99773840Y73492360D01*
X100774600Y72991980D02*
X99773840Y72991980D01*
X100774600Y73492360D02*
X100774600Y72991980D01*
X95275500Y80987900D02*
X95275500Y80487520D01*
X96276260Y80987900D02*
X95275500Y80987900D01*
X96276260Y80487520D02*
X96276260Y80987900D01*
D12*
X100856680Y85201020D02*
G75*
G03X100856680Y85201020I-281940J0D01*
G01*
D11*
X99723840Y81451980D02*
X99723840Y81952360D01*
X100724600Y81451980D02*
X99723840Y81451980D01*
X100724600Y81952360D02*
X100724600Y81451980D01*
X95225500Y89447900D02*
X95225500Y88947520D01*
X96226260Y89447900D02*
X95225500Y89447900D01*
X96226260Y88947520D02*
X96226260Y89447900D01*
D12*
X100806680Y68176020D02*
G75*
G03X100806680Y68176020I-281940J0D01*
G01*
D11*
X99673840Y64426980D02*
X99673840Y64927360D01*
X100674600Y64426980D02*
X99673840Y64426980D01*
X100674600Y64927360D02*
X100674600Y64426980D01*
X95175500Y72422900D02*
X95175500Y71922520D01*
X96176260Y72422900D02*
X95175500Y72422900D01*
X96176260Y71922520D02*
X96176260Y72422900D01*
D12*
X48082960Y-20999740D02*
G75*
G03X48082960Y-20999740I-281940J0D01*
G01*
D11*
X44051980Y-20148840D02*
X44552360Y-20148840D01*
X44051980Y-21149600D02*
X44051980Y-20148840D01*
X44552360Y-21149600D02*
X44051980Y-21149600D01*
X52047900Y-15650500D02*
X51547520Y-15650500D01*
X52047900Y-16651260D02*
X52047900Y-15650500D01*
X51547520Y-16651260D02*
X52047900Y-16651260D01*
D13*
X23226360Y-18000000D02*
G75*
G03X23226360Y-18000000I-424180J0D01*
G01*
X26726480Y-18000000D02*
G75*
G03X26726480Y-18000000I-424180J0D01*
G01*
X30226600Y-18000000D02*
G75*
G03X30226600Y-18000000I-424180J0D01*
G01*
X33724180Y-18000000D02*
G75*
G03X33724180Y-18000000I-424180J0D01*
G01*
D11*
X20551740Y-20148840D02*
X21052120Y-20148840D01*
X20551740Y-21149600D02*
X20551740Y-20148840D01*
X21052120Y-21149600D02*
X20551740Y-21149600D01*
X35547900Y-15650500D02*
X35047520Y-15650500D01*
X35547900Y-16651260D02*
X35547900Y-15650500D01*
X35047520Y-16651260D02*
X35547900Y-16651260D01*
D13*
X8226360Y-17900000D02*
G75*
G03X8226360Y-17900000I-424180J0D01*
G01*
X11726480Y-17900000D02*
G75*
G03X11726480Y-17900000I-424180J0D01*
G01*
X15226600Y-17900000D02*
G75*
G03X15226600Y-17900000I-424180J0D01*
G01*
X18724180Y-17900000D02*
G75*
G03X18724180Y-17900000I-424180J0D01*
G01*
D11*
X5551740Y-20048840D02*
X6052120Y-20048840D01*
X5551740Y-21049600D02*
X5551740Y-20048840D01*
X6052120Y-21049600D02*
X5551740Y-21049600D01*
X20547900Y-15550500D02*
X20047520Y-15550500D01*
X20547900Y-16551260D02*
X20547900Y-15550500D01*
X20047520Y-16551260D02*
X20547900Y-16551260D01*
M02*
